<?xml version="1.0" standalone="no"?>
<!DOCTYPE svg PUBLIC "-//W3C//DTD SVG 20010904//EN"
 "http://www.w3.org/TR/2001/REC-SVG-20010904/DTD/svg10.dtd">
<svg version="1.0" xmlns="http://www.w3.org/2000/svg"
 width="128.000000pt" height="128.000000pt" viewBox="0 0 128.000000 128.000000"
 preserveAspectRatio="xMidYMid meet">
<metadata>
Created by potrace 1.14, written by Peter Selinger 2001-2017
</metadata>
<g transform="translate(0.000000,128.000000) scale(0.100000,-0.100000)"
fill="#000000" stroke="none">
<path d="M813 1238 c-49 -13 -82 -72 -69 -123 7 -25 63 -88 93 -104 12 -6 37
-11 55 -11 63 0 116 86 88 141 -18 34 -87 96 -113 101 -12 2 -37 0 -54 -4z"/>
<path d="M636 1030 c-95 -48 -186 -126 -186 -160 0 -21 66 -90 86 -90 9 0 14
-11 14 -34 0 -19 19 -72 45 -126 51 -103 53 -92 -20 -166 -106 -108 -127 -135
-121 -160 l6 -24 -133 0 c-121 0 -136 2 -152 20 -29 32 -75 22 -75 -16 0 -12
94 -104 106 -104 9 0 14 -11 14 -28 0 -31 62 -100 96 -106 25 -5 51 14 63 47
8 20 6 31 -9 50 l-20 25 275 0 c195 -1 275 -4 274 -12 -3 -25 3 -36 36 -72 39
-41 74 -47 105 -19 25 23 26 59 1 84 -17 17 -18 20 -3 19 44 -3 92 15 116 42
25 30 26 70 1 70 -8 0 -17 9 -20 20 -8 26 -42 26 -70 0 -18 -17 -36 -20 -155
-21 -74 -1 -168 -1 -208 0 l-73 1 35 37 35 37 24 -22 c13 -12 32 -22 43 -22
18 0 77 45 145 112 30 28 32 56 6 87 -69 83 -134 158 -146 167 -12 9 -11 14 1
35 9 13 23 45 33 72 19 50 29 55 60 33 26 -17 79 -34 131 -42 46 -6 74 12 74
48 0 32 -57 78 -109 88 -60 11 -111 38 -111 57 0 8 -20 34 -44 59 -54 54 -84
56 -170 14z"/>
</g>
</svg>
